<mxfile host="app.diagrams.net" agent="Mozilla/5.0 (Windows NT 10.0; Win64; x64) AppleWebKit/537.36 (KHTML, like Gecko) Chrome/129.0.0.0 Safari/537.36" version="24.7.17">
  <diagram name="ページ1" id="cvW7JD9fnjbFGT38sK29">
    <mxGraphModel dx="1788" dy="2181" grid="1" gridSize="10" guides="1" tooltips="1" connect="1" arrows="1" fold="1" page="1" pageScale="1" pageWidth="827" pageHeight="1169" math="0" shadow="0">
      <root>
        <mxCell id="0" />
        <mxCell id="1" parent="0" />
        <mxCell id="iPjWZaMH8rYA2JW9j5OT-21" value="AWS Cloud" style="sketch=0;outlineConnect=0;gradientColor=none;html=1;whiteSpace=wrap;fontSize=12;fontStyle=0;shape=mxgraph.aws4.group;grIcon=mxgraph.aws4.group_aws_cloud;strokeColor=#AAB7B8;fillColor=none;verticalAlign=top;align=left;spacingLeft=30;fontColor=#AAB7B8;dashed=0;" vertex="1" parent="1">
          <mxGeometry x="570" y="240" width="240" height="340" as="geometry" />
        </mxCell>
        <mxCell id="iPjWZaMH8rYA2JW9j5OT-1" value="" style="sketch=0;outlineConnect=0;fontColor=#232F3E;gradientColor=none;fillColor=#232F3D;strokeColor=none;dashed=0;verticalLabelPosition=bottom;verticalAlign=top;align=center;html=1;fontSize=12;fontStyle=0;aspect=fixed;pointerEvents=1;shape=mxgraph.aws4.user;" vertex="1" parent="1">
          <mxGeometry x="106" y="430" width="78" height="78" as="geometry" />
        </mxCell>
        <mxCell id="iPjWZaMH8rYA2JW9j5OT-2" value="" style="image;html=1;image=img/lib/clip_art/networking/Cloud_Server_128x128.png" vertex="1" parent="1">
          <mxGeometry x="300" y="440" width="80" height="80" as="geometry" />
        </mxCell>
        <mxCell id="iPjWZaMH8rYA2JW9j5OT-4" value="" style="edgeStyle=orthogonalEdgeStyle;html=1;endArrow=block;elbow=vertical;startArrow=block;startFill=1;endFill=1;strokeColor=#545B64;rounded=0;" edge="1" parent="1">
          <mxGeometry width="100" relative="1" as="geometry">
            <mxPoint x="186" y="478.5" as="sourcePoint" />
            <mxPoint x="286" y="478.5" as="targetPoint" />
          </mxGeometry>
        </mxCell>
        <mxCell id="iPjWZaMH8rYA2JW9j5OT-6" value="" style="image;html=1;image=img/lib/clip_art/networking/Cloud_Server_128x128.png" vertex="1" parent="1">
          <mxGeometry x="555" y="80" width="80" height="80" as="geometry" />
        </mxCell>
        <mxCell id="iPjWZaMH8rYA2JW9j5OT-7" value="" style="sketch=0;outlineConnect=0;fontColor=#232F3E;gradientColor=none;fillColor=#232F3D;strokeColor=none;dashed=0;verticalLabelPosition=bottom;verticalAlign=top;align=center;html=1;fontSize=12;fontStyle=0;aspect=fixed;pointerEvents=1;shape=mxgraph.aws4.user;" vertex="1" parent="1">
          <mxGeometry x="303" y="-30" width="78" height="78" as="geometry" />
        </mxCell>
        <mxCell id="iPjWZaMH8rYA2JW9j5OT-9" value="&lt;font style=&quot;font-size: 20px;&quot;&gt;&lt;b&gt;GitHub Actions&lt;/b&gt;&lt;/font&gt;" style="text;html=1;align=center;verticalAlign=middle;whiteSpace=wrap;rounded=0;" vertex="1" parent="1">
          <mxGeometry x="510" y="160" width="150" height="30" as="geometry" />
        </mxCell>
        <mxCell id="iPjWZaMH8rYA2JW9j5OT-10" value="&lt;font style=&quot;font-size: 20px;&quot;&gt;&lt;b&gt;Supabase&lt;/b&gt;&lt;/font&gt;" style="text;html=1;align=center;verticalAlign=middle;whiteSpace=wrap;rounded=0;" vertex="1" parent="1">
          <mxGeometry x="604" y="690" width="150" height="30" as="geometry" />
        </mxCell>
        <mxCell id="iPjWZaMH8rYA2JW9j5OT-11" value="&lt;font style=&quot;font-size: 20px;&quot;&gt;&lt;b&gt;Developer&lt;/b&gt;&lt;/font&gt;" style="text;html=1;align=center;verticalAlign=middle;whiteSpace=wrap;rounded=0;" vertex="1" parent="1">
          <mxGeometry x="267" y="-60" width="150" height="30" as="geometry" />
        </mxCell>
        <mxCell id="iPjWZaMH8rYA2JW9j5OT-12" value="&lt;font style=&quot;font-size: 20px;&quot;&gt;&lt;b&gt;Vercel&lt;/b&gt;&lt;/font&gt;&lt;div&gt;&lt;font style=&quot;font-size: 20px;&quot;&gt;&lt;b&gt;Next.js + TypeScript&lt;/b&gt;&lt;/font&gt;&lt;/div&gt;" style="text;html=1;align=center;verticalAlign=middle;whiteSpace=wrap;rounded=0;" vertex="1" parent="1">
          <mxGeometry x="224" y="521" width="226" height="30" as="geometry" />
        </mxCell>
        <mxCell id="iPjWZaMH8rYA2JW9j5OT-14" value="" style="edgeStyle=orthogonalEdgeStyle;html=1;endArrow=block;elbow=vertical;startArrow=block;startFill=1;endFill=1;strokeColor=#545B64;rounded=0;" edge="1" parent="1">
          <mxGeometry width="100" relative="1" as="geometry">
            <mxPoint x="400" y="480" as="sourcePoint" />
            <mxPoint x="625" y="479.99" as="targetPoint" />
          </mxGeometry>
        </mxCell>
        <mxCell id="iPjWZaMH8rYA2JW9j5OT-15" value="&lt;span style=&quot;font-size: 20px;&quot;&gt;&lt;b&gt;AWS App Runner&lt;/b&gt;&lt;/span&gt;&lt;br&gt;&lt;div&gt;&lt;font style=&quot;font-size: 20px;&quot;&gt;&lt;b&gt;Hono + TypeScript&lt;/b&gt;&lt;/font&gt;&lt;/div&gt;" style="text;html=1;align=center;verticalAlign=middle;whiteSpace=wrap;rounded=0;" vertex="1" parent="1">
          <mxGeometry x="709" y="465" width="226" height="30" as="geometry" />
        </mxCell>
        <mxCell id="iPjWZaMH8rYA2JW9j5OT-16" value="" style="strokeWidth=2;html=1;shape=mxgraph.flowchart.database;whiteSpace=wrap;" vertex="1" parent="1">
          <mxGeometry x="649" y="620" width="60" height="60" as="geometry" />
        </mxCell>
        <mxCell id="iPjWZaMH8rYA2JW9j5OT-17" value="" style="edgeStyle=orthogonalEdgeStyle;html=1;endArrow=block;elbow=vertical;startArrow=block;startFill=1;endFill=1;strokeColor=#545B64;rounded=0;" edge="1" parent="1">
          <mxGeometry width="100" relative="1" as="geometry">
            <mxPoint x="680" y="611" as="sourcePoint" />
            <mxPoint x="680" y="521" as="targetPoint" />
          </mxGeometry>
        </mxCell>
        <mxCell id="iPjWZaMH8rYA2JW9j5OT-18" value="" style="edgeStyle=orthogonalEdgeStyle;html=1;endArrow=block;elbow=vertical;startArrow=block;startFill=1;endFill=1;strokeColor=#545B64;rounded=0;" edge="1" parent="1">
          <mxGeometry width="100" relative="1" as="geometry">
            <mxPoint x="640" y="650" as="sourcePoint" />
            <mxPoint x="340" y="570" as="targetPoint" />
          </mxGeometry>
        </mxCell>
        <mxCell id="iPjWZaMH8rYA2JW9j5OT-19" value="&lt;font style=&quot;font-size: 20px;&quot;&gt;&lt;b&gt;User&lt;/b&gt;&lt;/font&gt;" style="text;html=1;align=center;verticalAlign=middle;whiteSpace=wrap;rounded=0;" vertex="1" parent="1">
          <mxGeometry x="80" y="518" width="150" height="30" as="geometry" />
        </mxCell>
        <mxCell id="iPjWZaMH8rYA2JW9j5OT-20" value="" style="edgeStyle=orthogonalEdgeStyle;html=1;endArrow=none;elbow=vertical;startArrow=block;startFill=1;strokeColor=#545B64;rounded=0;" edge="1" parent="1">
          <mxGeometry width="100" relative="1" as="geometry">
            <mxPoint x="540" y="120" as="sourcePoint" />
            <mxPoint x="342.2066666666668" y="60.5" as="targetPoint" />
            <Array as="points">
              <mxPoint x="341.75" y="102" />
              <mxPoint x="341.75" y="102" />
            </Array>
          </mxGeometry>
        </mxCell>
        <mxCell id="iPjWZaMH8rYA2JW9j5OT-22" value="" style="sketch=0;points=[[0,0,0],[0.25,0,0],[0.5,0,0],[0.75,0,0],[1,0,0],[0,1,0],[0.25,1,0],[0.5,1,0],[0.75,1,0],[1,1,0],[0,0.25,0],[0,0.5,0],[0,0.75,0],[1,0.25,0],[1,0.5,0],[1,0.75,0]];outlineConnect=0;fontColor=#232F3E;fillColor=#ED7100;strokeColor=#ffffff;dashed=0;verticalLabelPosition=bottom;verticalAlign=top;align=center;html=1;fontSize=12;fontStyle=0;aspect=fixed;shape=mxgraph.aws4.resourceIcon;resIcon=mxgraph.aws4.ecr;" vertex="1" parent="1">
          <mxGeometry x="640" y="320" width="78" height="78" as="geometry" />
        </mxCell>
        <mxCell id="iPjWZaMH8rYA2JW9j5OT-25" value="" style="edgeStyle=orthogonalEdgeStyle;html=1;endArrow=block;elbow=vertical;startArrow=none;endFill=1;strokeColor=#545B64;rounded=0;entryX=0.5;entryY=0;entryDx=0;entryDy=0;entryPerimeter=0;" edge="1" parent="1" target="iPjWZaMH8rYA2JW9j5OT-22">
          <mxGeometry width="100" relative="1" as="geometry">
            <mxPoint x="640" y="120" as="sourcePoint" />
            <mxPoint x="760" y="200" as="targetPoint" />
            <Array as="points">
              <mxPoint x="679" y="120" />
            </Array>
          </mxGeometry>
        </mxCell>
        <mxCell id="iPjWZaMH8rYA2JW9j5OT-26" value="" style="sketch=0;points=[[0,0,0],[0.25,0,0],[0.5,0,0],[0.75,0,0],[1,0,0],[0,1,0],[0.25,1,0],[0.5,1,0],[0.75,1,0],[1,1,0],[0,0.25,0],[0,0.5,0],[0,0.75,0],[1,0.25,0],[1,0.5,0],[1,0.75,0]];outlineConnect=0;fontColor=#232F3E;fillColor=#ED7100;strokeColor=#ffffff;dashed=0;verticalLabelPosition=bottom;verticalAlign=top;align=center;html=1;fontSize=12;fontStyle=0;aspect=fixed;shape=mxgraph.aws4.resourceIcon;resIcon=mxgraph.aws4.app_runner;" vertex="1" parent="1">
          <mxGeometry x="640" y="440" width="78" height="78" as="geometry" />
        </mxCell>
        <mxCell id="iPjWZaMH8rYA2JW9j5OT-27" value="" style="edgeStyle=orthogonalEdgeStyle;html=1;endArrow=none;elbow=vertical;startArrow=block;startFill=1;strokeColor=#545B64;rounded=0;entryX=0.5;entryY=1;entryDx=0;entryDy=0;entryPerimeter=0;exitX=0.5;exitY=0;exitDx=0;exitDy=0;exitPerimeter=0;" edge="1" parent="1" source="iPjWZaMH8rYA2JW9j5OT-26" target="iPjWZaMH8rYA2JW9j5OT-22">
          <mxGeometry width="100" relative="1" as="geometry">
            <mxPoint x="361" y="270" as="sourcePoint" />
            <mxPoint x="361.4666666666668" y="80.5" as="targetPoint" />
            <Array as="points">
              <mxPoint x="680" y="440" />
              <mxPoint x="680" y="398" />
            </Array>
          </mxGeometry>
        </mxCell>
        <mxCell id="iPjWZaMH8rYA2JW9j5OT-28" value="" style="edgeStyle=orthogonalEdgeStyle;html=1;endArrow=none;elbow=vertical;startArrow=block;startFill=1;strokeColor=#545B64;rounded=0;" edge="1" parent="1">
          <mxGeometry width="100" relative="1" as="geometry">
            <mxPoint x="340" y="430" as="sourcePoint" />
            <mxPoint x="340.44666666666683" y="60" as="targetPoint" />
            <Array as="points">
              <mxPoint x="339.99" y="101.5" />
              <mxPoint x="339.99" y="101.5" />
            </Array>
          </mxGeometry>
        </mxCell>
        <mxCell id="iPjWZaMH8rYA2JW9j5OT-29" value="&lt;span style=&quot;font-size: 20px;&quot;&gt;&lt;b&gt;ECR&lt;/b&gt;&lt;/span&gt;" style="text;html=1;align=center;verticalAlign=middle;whiteSpace=wrap;rounded=0;" vertex="1" parent="1">
          <mxGeometry x="649" y="344" width="226" height="30" as="geometry" />
        </mxCell>
      </root>
    </mxGraphModel>
  </diagram>
</mxfile>
